<?xml version="1.0" encoding="UTF-8" standalone="no"?>
<svg width="66px" height="72px" viewBox="0 0 66 72" version="1.1" xmlns="http://www.w3.org/2000/svg" xmlns:xlink="http://www.w3.org/1999/xlink" xmlns:sketch="http://www.bohemiancoding.com/sketch/ns">
    <!-- Generator: Sketch 3.1 (8751) - http://www.bohemiancoding.com/sketch -->
    <title>github</title>
    <desc>Created with Sketch.</desc>
    <defs></defs>
    <g id="Page-1" stroke="none" stroke-width="1" fill="none" fill-rule="evenodd" sketch:type="MSPage">
        <g id="Desktop-HD" sketch:type="MSArtboardGroup" transform="translate(-502.000000, -3018.000000)">
            <g id="Logo-2" sketch:type="MSLayerGroup" transform="translate(483.000000, 3018.000000)">
                <g id="github" transform="translate(19.000000, 0.000000)" sketch:type="MSShapeGroup">
                    <path d="M28.6451504,1.156537 C31.0459791,-0.199027507 34.9328778,-0.202197151 37.3393202,1.156537 L61.6373857,14.8757978 C64.0382144,16.2313623 65.9844706,19.5769305 65.9844706,22.3355131 L65.9844706,49.5816274 C65.9844706,52.3459499 64.0438281,55.6826086 61.6373857,57.0413427 L37.3393202,70.7606035 C34.9384915,72.116168 31.0515928,72.1193377 28.6451504,70.7606035 L4.34708492,57.0413427 C1.94625621,55.6857782 0,52.34021 0,49.5816274 L0,22.3355131 C0,19.5711906 1.94064248,16.2345319 4.34708492,14.8757978 L28.6451504,1.156537 Z" id="Stroke-2" fill="#171717"></path>
                    <path d="M42.6345,22 C43.128,23.119 43.446,24.973 42.972,26.332 C44.9175,27.994 45.585,32.0305 44.646,35.3305 C47.4195,35.5435 50.721,35.23 52.854,36.079 C50.8605,35.824 48.138,35.32 45.567,35.497 C45.081,35.5285 44.3595,35.479 44.3955,36.163 C47.37,36.3955 50.3265,36.6505 52.77,37.4125 C50.3475,37.0165 47.4045,36.415 44.3955,36.331 C43.1505,38.785 40.6485,39.991 37.194,40.246 C37.5645,41.0545 38.2755,41.362 38.4495,42.661 C38.709,44.6035 38.0445,47.4475 38.7,48.7435 C39.0135,49.363 39.5265,49.381 39.873,49.9105 C39.0255,50.9125 36.9285,49.798 36.69,48.7435 C36.2805,46.9375 37.3125,44.1355 36.1875,42.9115 C36.267,44.881 35.721,47.6485 36.2715,49.4095 C36.489,50.101 37.113,50.368 36.9405,50.992 C33.009,51.3925 34.6515,45.9025 34.008,42.661 C33.4155,42.703 33.6765,43.5505 33.675,43.9105 C33.657,47.0755 34.3215,51.4165 30.9105,50.992 C30.8115,50.329 31.368,50.101 31.581,49.495 C32.202,47.713 31.464,45.061 31.7505,42.9115 C30.447,43.8925 31.8855,47.3185 31.08,49.075 C30.615,50.086 29.118,50.5255 27.981,50.0755 C28.1295,49.3225 28.9065,49.444 29.2365,48.7435 C29.697,47.764 29.2395,46.357 29.4045,44.911 C26.994,45.391 25.125,44.842 24.21,43.327 C23.802,42.6475 23.7,41.848 23.205,41.245 C22.713,40.6435 21.9285,40.5625 21.699,39.7465 C24.684,39.028 24.798,42.8185 27.477,42.9115 C28.3005,42.9415 28.7265,42.6745 29.487,42.496 C29.7,41.5405 30.156,40.8265 30.8265,40.327 C27.4935,39.871 24.738,38.833 23.457,36.331 C20.4255,36.481 17.6505,36.8845 15.081,37.4965 C17.4135,36.649 20.2905,36.346 23.3745,36.247 C23.193,35.1535 21.6,35.4535 20.61,35.497 C18.7725,35.578 16.458,35.8075 15,36.079 C17.1165,35.3245 20.0865,35.4205 22.956,35.4145 C22.077,32.6635 22.383,28.2925 24.2955,26.6665 C23.754,25.3 23.922,23.065 24.63,22 C26.766,22.096 28.0635,23.0275 29.4045,23.917 C31.068,23.443 32.817,23.2075 35.1,23.332 C36.0585,23.386 37.056,23.818 37.7775,23.749 C38.487,23.683 39.2685,22.8865 39.9555,22.5835 C40.8525,22.1875 41.6115,22.0375 42.6345,22" id="Imported-Layers" fill="#FFFFFF"></path>
                </g>
            </g>
        </g>
    </g>
</svg>