<?xml version="1.0" encoding="UTF-8" standalone="no"?>
<svg width="33px" height="36px" viewBox="0 0 33 36" version="1.1" xmlns="http://www.w3.org/2000/svg" xmlns:xlink="http://www.w3.org/1999/xlink" xmlns:sketch="http://www.bohemiancoding.com/sketch/ns">
    <!-- Generator: Sketch 3.1 (8751) - http://www.bohemiancoding.com/sketch -->
    <title>Imported Layers</title>
    <desc>Created with Sketch.</desc>
    <defs></defs>
    <g id="Page-1" stroke="none" stroke-width="1" fill="none" fill-rule="evenodd" sketch:type="MSPage">
        <g id="Desktop-HD" sketch:type="MSArtboardGroup" transform="translate(-429.000000, -1000.000000)" fill="#222222">
            <g id="Features" sketch:type="MSLayerGroup" transform="translate(69.000000, 990.000000)">
                <g id="Extensions" transform="translate(360.000000, 0.000000)" sketch:type="MSShapeGroup">
                    <g id="Imported-Layers" transform="translate(0.000000, 10.000000)">
                        <path d="M18.9135238,23.38125 C18.7725714,23.38125 18.6293333,23.37825 18.4868571,23.3715 C15.9489524,23.26275 13.5291429,22.19775 11.6739048,20.3715 C7.81257143,16.5705 7.57104762,10.623 11.1352381,7.11375 L17.0620952,1.2795 C17.3592381,0.987 17.8415238,0.987 18.1394286,1.2795 C18.4365714,1.57275 18.4365714,2.0475 18.1394286,2.34 L12.2125714,8.17425 C9.24266667,11.0985 9.48419048,16.095 12.7512381,19.311 C16.0198095,22.5285 21.0948571,22.76475 24.0655238,19.842 L29.991619,14.0085 L31.0689524,15.069 L25.1428571,20.9025 C23.5100952,22.50975 21.312,23.38125 18.9135238,23.38125" id="Fill-1"></path>
                        <path d="M30.5302857,15.28875 C30.336,15.28875 30.1409524,15.21525 29.991619,15.069 L17.0620952,2.34 C16.7641905,2.0475 16.7641905,1.57275 17.0620952,1.2795 C17.3592381,0.987 17.8415238,0.987 18.1394286,1.2795 L31.0689524,14.0085 C31.3668571,14.301 31.3668571,14.77575 31.0689524,15.069 C30.920381,15.21525 30.7253333,15.28875 30.5302857,15.28875" id="Fill-2"></path>
                        <path d="M20.8335238,5.742 C20.6384762,5.742 20.4434286,5.6685 20.2948571,5.52225 C19.9969524,5.229 19.9969524,4.75425 20.2948571,4.46175 L24.6041905,0.21975 C24.9020952,-0.0735 25.383619,-0.0735 25.6815238,0.21975 C25.9794286,0.51225 25.9794286,0.987 25.6815238,1.28025 L21.3721905,5.52225 C21.2228571,5.6685 21.0285714,5.742 20.8335238,5.742" id="Fill-3"></path>
                        <path d="M27.2982857,12.10575 C27.1032381,12.10575 26.9081905,12.033 26.759619,11.886 C26.4617143,11.5935 26.4617143,11.11875 26.759619,10.8255 L31.0689524,6.5835 C31.3668571,6.29025 31.8491429,6.29025 32.1462857,6.5835 C32.4441905,6.876 32.4441905,7.35075 32.1462857,7.644 L27.8369524,11.886 C27.688381,12.033 27.4933333,12.10575 27.2982857,12.10575" id="Fill-4"></path>
                        <path d="M26.2201905,15.28875 C26.0251429,15.28875 25.8300952,15.21525 25.6815238,15.069 L17.0620952,6.58275 C16.7641905,6.2895 16.7641905,5.81475 17.0620952,5.52225 C17.3592381,5.229 17.8415238,5.229 18.1394286,5.52225 L26.7588571,14.0085 C27.0567619,14.301 27.0567619,14.7765 26.7588571,15.069 C26.6102857,15.21525 26.4152381,15.28875 26.2201905,15.28875" id="Fill-5"></path>
                        <path d="M17.0620952,18.069 C16.2468571,18.069 15.4819048,17.75625 14.9059048,17.18925 C14.3314286,16.623 14.0144762,15.87 14.0144762,15.06825 C14.0144762,14.26725 14.3314286,13.51425 14.9074286,12.94725 C16.0571429,11.814 18.0662857,11.814 19.2167619,12.94725 C19.7927619,13.51425 20.1097143,14.26725 20.1097143,15.06825 C20.1097143,15.87 19.7927619,16.623 19.2167619,17.18925 C18.6415238,17.75625 17.8765714,18.069 17.0620952,18.069 L17.0620952,18.069 Z M17.0620952,13.569 C16.6544762,13.569 16.272,13.725 15.984,14.00775 C15.6967619,14.29125 15.5382857,14.66775 15.5382857,15.06825 C15.5382857,15.46875 15.6967619,15.84525 15.984,16.12875 C16.56,16.6965 17.5641905,16.6965 18.1386667,16.1295 C18.4274286,15.84525 18.5859048,15.46875 18.5859048,15.06825 C18.5859048,14.66775 18.4274286,14.29125 18.1394286,14.00775 C17.8514286,13.725 17.4689524,13.569 17.0620952,13.569 L17.0620952,13.569 Z" id="Fill-6"></path>
                        <path d="M10.5965714,25.365 C10.4015238,25.365 10.2072381,25.2915 10.0579048,25.14525 L6.82514286,21.963 C6.68266667,21.822 6.60190476,21.6315 6.60190476,21.43275 C6.60190476,21.234 6.68266667,21.04275 6.82514286,20.9025 L10.256,17.52525 C10.5539048,17.232 11.0354286,17.232 11.3333333,17.52525 C11.6312381,17.8185 11.6312381,18.2925 11.3333333,18.58575 L8.44114286,21.43275 L10.5965714,23.5545 L13.4773333,20.7195 C13.7744762,20.42625 14.2567619,20.42625 14.5546667,20.7195 C14.8518095,21.012 14.8518095,21.48675 14.5546667,21.78 L11.1352381,25.14525 C10.9866667,25.2915 10.791619,25.365 10.5965714,25.365" id="Fill-7"></path>
                        <path d="M11.8041905,35.8425 C11.6091429,35.8425 11.4140952,35.769 11.2655238,35.62275 C10.968381,35.3295 10.968381,34.85475 11.2655238,34.56225 L13.8293333,32.0385 C14.4228571,31.45425 14.4228571,30.5025 13.8293333,29.91825 C13.2540952,29.35125 12.2491429,29.3505 11.6746667,29.9175 L6.82514286,34.6905 C5.34019048,36.15225 2.92342857,36.15375 1.43847619,34.6905 C-0.0472380952,33.22875 -0.0472380952,30.84975 1.43847619,29.38725 L8.44114286,22.49325 C8.73904762,22.2 9.22133333,22.2 9.51847619,22.49325 C9.81638095,22.7865 9.81638095,23.26125 9.51847619,23.55375 L2.51580952,30.44775 C1.62438095,31.32525 1.62438095,32.7525 2.51580952,33.63 C3.4072381,34.50675 4.85638095,34.50675 5.74780952,33.63 L10.5965714,28.857 C11.1718095,28.29075 11.9375238,27.978 12.7512381,27.978 C13.5664762,27.978 14.3314286,28.29075 14.9074286,28.857 C16.0944762,30.027 16.0944762,31.92975 14.9074286,33.099 L12.3428571,35.62275 C12.1942857,35.769 11.9992381,35.8425 11.8041905,35.8425" id="Fill-8"></path>
                    </g>
                </g>
            </g>
        </g>
    </g>
</svg>