<?xml version="1.0" encoding="UTF-8" standalone="no"?>
<svg width="38px" height="34px" viewBox="0 0 38 34" version="1.1" xmlns="http://www.w3.org/2000/svg" xmlns:xlink="http://www.w3.org/1999/xlink" xmlns:sketch="http://www.bohemiancoding.com/sketch/ns">
    <!-- Generator: Sketch 3.1 (8751) - http://www.bohemiancoding.com/sketch -->
    <title>Imported Layers</title>
    <desc>Created with Sketch.</desc>
    <defs></defs>
    <g id="Page-1" stroke="none" stroke-width="1" fill="none" fill-rule="evenodd" sketch:type="MSPage">
        <g id="Desktop-HD" sketch:type="MSArtboardGroup" transform="translate(-482.000000, -1212.000000)" stroke="#222222" stroke-width="1.5" stroke-linecap="round" stroke-linejoin="round">
            <g id="Features" sketch:type="MSLayerGroup" transform="translate(69.000000, 990.000000)">
                <g id="ACL" transform="translate(414.000000, 218.000000)" sketch:type="MSShapeGroup">
                    <g id="Imported-Layers" transform="translate(0.000000, 5.000000)">
                        <path d="M14.0822609,32 L28.173913,32 C28.173913,32 28.173913,26.6656 27.432,24.3808 C26.7855652,22.3888 22.1165217,21.0872 17.2173913,19.2 L17.2173913,15.2 C17.2173913,15.2 19.5652174,14.2088 19.5652174,10.4 C20.7892174,10.4 20.7892174,7.2 19.5652174,7.2 C19.5652174,6.8256 20.862,4.5144 20.3478261,2.4 C19.605913,-0.648 10.9150435,-0.648 10.173913,2.4 C6.46669565,1.6376 8.60869565,6.6888 8.60869565,7.2 C7.38313043,7.2 7.38313043,10.4 8.60869565,10.4 C8.60869565,14.2088 10.9565217,15.2 10.9565217,15.2 L10.9565217,19.2 C6.60756522,20.8888 1.386,22.3888 0.741130435,24.3808 C0,26.6656 0,32 0,32 L14.0822609,32 L14.0822609,32 Z" id="Stroke-1"></path>
                        <path d="M32.8695652,32 L36,32 C36,32 36,26.6656 35.258087,24.3808 C34.6116522,22.3888 29.9426087,20.2872 25.0434783,18.4 L25.0434783,16 C25.0434783,16 27.3913043,15.0088 27.3913043,11.2 C28.6153043,11.2 28.6153043,8 27.3913043,8 C27.3913043,7.6256 28.688087,5.0208 28.173913,2.9056 C27.8264348,1.48 25.0434783,-0.8 22.6956522,0.8" id="Stroke-2"></path>
                    </g>
                </g>
            </g>
        </g>
    </g>
</svg>