<?xml version="1.0" encoding="UTF-8" standalone="no"?>
<svg width="38px" height="38px" viewBox="0 0 38 38" version="1.1" xmlns="http://www.w3.org/2000/svg" xmlns:xlink="http://www.w3.org/1999/xlink" xmlns:sketch="http://www.bohemiancoding.com/sketch/ns">
    <!-- Generator: Sketch 3.1 (8751) - http://www.bohemiancoding.com/sketch -->
    <title>Imported Layers</title>
    <desc>Created with Sketch.</desc>
    <defs></defs>
    <g id="Page-1" stroke="none" stroke-width="1" fill="none" fill-rule="evenodd" sketch:type="MSPage">
        <g id="Desktop-HD" sketch:type="MSArtboardGroup" transform="translate(-68.000000, -989.000000)" stroke="#222222" stroke-width="1.5" stroke-linecap="round" stroke-linejoin="round">
            <g id="Features" sketch:type="MSLayerGroup" transform="translate(69.000000, 990.000000)">
                <g id="Laravel" sketch:type="MSShapeGroup">
                    <path d="M30.9193043,20.3478261 L36,20.3478261 L36,15.6521739 L30.9177391,15.6521739 C30.5906087,14.2951304 30.0553043,12.2384348 29.3478261,11.0786087 L32.9415652,7.48486957 L28.5135652,3.05843478 L24.9190435,6.65217391 C23.7584348,5.94391304 21.7048696,5.4093913 20.3478261,5.08226087 L20.3478261,0 L15.6521739,0 L15.6521739,5.08226087 C14.2951304,5.4093913 12.2392174,5.94391304 11.0801739,6.65217391 L7.48486957,3.05843478 L3.05765217,7.48486957 L6.65217391,11.0801739 C5.94391304,12.2384348 5.4093913,14.2951304 5.07991304,15.6521739 L0,15.6521739 L0,20.3478261 L5.07991304,20.3478261 C5.4093913,21.7048696 5.94391304,23.7607826 6.65217391,24.9198261 L3.05686957,28.5143478 L7.48486957,32.9415652 L11.0786087,29.3462609 C12.2392174,30.0553043 14.2951304,30.5898261 15.6521739,30.9185217 L15.6521739,36 L20.3478261,36 L20.3478261,30.9185217 C21.7048696,30.5898261 23.7607826,30.0553043 24.9190435,29.3478261 L28.5143478,32.9415652 L32.9415652,28.5143478 L29.3478261,24.9198261 C30.0553043,23.7607826 30.5906087,21.7048696 30.9193043,20.3478261 L30.9193043,20.3478261 Z M25.0434783,18 C25.0434783,21.8903478 21.8903478,25.0434783 18,25.0434783 C14.1096522,25.0434783 10.9565217,21.8903478 10.9565217,18 C10.9565217,14.1096522 14.1096522,10.9565217 18,10.9565217 C21.8903478,10.9565217 25.0434783,14.1096522 25.0434783,18 L25.0434783,18 Z" id="Imported-Layers"></path>
                </g>
            </g>
        </g>
    </g>
</svg>