<?xml version="1.0" encoding="UTF-8" standalone="no"?>
<svg width="66px" height="72px" viewBox="0 0 66 72" version="1.1" xmlns="http://www.w3.org/2000/svg" xmlns:xlink="http://www.w3.org/1999/xlink" xmlns:sketch="http://www.bohemiancoding.com/sketch/ns">
    <!-- Generator: Sketch 3.1 (8751) - http://www.bohemiancoding.com/sketch -->
    <title>facebook</title>
    <desc>Created with Sketch.</desc>
    <defs></defs>
    <g id="Page-1" stroke="none" stroke-width="1" fill="none" fill-rule="evenodd" sketch:type="MSPage">
        <g id="Desktop-HD" sketch:type="MSArtboardGroup" transform="translate(-602.000000, -3018.000000)">
            <g id="Logo-3" sketch:type="MSLayerGroup" transform="translate(583.000000, 3018.000000)">
                <g id="facebook" transform="translate(19.000000, 0.000000)" sketch:type="MSShapeGroup">
                    <path d="M28.6451504,1.156537 C31.0459791,-0.199027507 34.9328778,-0.202197151 37.3393202,1.156537 L61.6373857,14.8757978 C64.0382144,16.2313623 65.9844706,19.5769305 65.9844706,22.3355131 L65.9844706,49.5816274 C65.9844706,52.3459499 64.0438281,55.6826086 61.6373857,57.0413427 L37.3393202,70.7606035 C34.9384915,72.116168 31.0515928,72.1193377 28.6451504,70.7606035 L4.34708492,57.0413427 C1.94625621,55.6857782 0,52.34021 0,49.5816274 L0,22.3355131 C0,19.5711906 1.94064248,16.2345319 4.34708492,14.8757978 L28.6451504,1.156537 Z" id="Stroke-2" fill="#496399"></path>
                    <path d="M36.6666667,29.1052632 L41.4166667,29.1052632 L41.4166667,23 L36.0903333,23 C31.9166667,23 28.75,26.0526316 28.75,29.1052632 L28.75,32.1578947 L24,32.1578947 L24,38.2631579 L28.75,38.2631579 L28.75,50.4736842 L35.0833333,50.4736842 L35.0833333,38.2631579 L39.8333333,38.2631579 L39.8333333,32.1578947 L35.0833333,32.1578947 L35.0833333,30.6315789 C35.0833333,29.6806842 36.1251667,29.1052632 36.6666667,29.1052632" id="Imported-Layers" fill="#FFFFFF"></path>
                </g>
            </g>
        </g>
    </g>
</svg>