<?xml version="1.0" encoding="UTF-8" standalone="no"?>
<svg width="37px" height="36px" viewBox="0 0 37 36" version="1.1" xmlns="http://www.w3.org/2000/svg" xmlns:xlink="http://www.w3.org/1999/xlink" xmlns:sketch="http://www.bohemiancoding.com/sketch/ns">
    <!-- Generator: Sketch 3.1 (8751) - http://www.bohemiancoding.com/sketch -->
    <title>Imported Layers</title>
    <desc>Created with Sketch.</desc>
    <defs></defs>
    <g id="Page-1" stroke="none" stroke-width="1" fill="none" fill-rule="evenodd" sketch:type="MSPage">
        <g id="Desktop-HD" sketch:type="MSArtboardGroup" transform="translate(-845.000000, -993.000000)" fill="#222222">
            <g id="Features" sketch:type="MSLayerGroup" transform="translate(69.000000, 990.000000)">
                <g id="Database" transform="translate(776.000000, 0.000000)" sketch:type="MSShapeGroup">
                    <g id="Imported-Layers" transform="translate(0.000000, 3.000000)">
                        <path d="M15.1020408,13.5 C6.63357143,13.5 0,10.53525 0,6.75 C0,2.96475 6.63357143,0 15.1020408,0 C23.5705102,0 30.2040816,2.96475 30.2040816,6.75 C30.2040816,10.53525 23.5705102,13.5 15.1020408,13.5 L15.1020408,13.5 Z M15.1020408,1.5 C8.67310204,1.5 1.51020408,3.65625 1.51020408,6.75 C1.51020408,9.84375 8.67310204,12 15.1020408,12 C21.5309796,12 28.6938776,9.84375 28.6938776,6.75 C28.6938776,3.65625 21.5309796,1.5 15.1020408,1.5 L15.1020408,1.5 Z" id="Fill-1"></path>
                        <path d="M15.1020408,19.5 C6.63357143,19.5 0,16.53525 0,12.75 C0,12.336 0.337530612,12 0.755102041,12 C1.17267347,12 1.51020408,12.336 1.51020408,12.75 C1.51020408,15.84375 8.67310204,18 15.1020408,18 C15.8473265,18 16.5926122,17.976 17.3167551,17.92725 C17.7441429,17.898 18.093,18.21225 18.1209388,18.62475 C18.1488776,19.038 17.834,19.39575 17.4179388,19.4235 C16.6598163,19.4745 15.8813061,19.5 15.1020408,19.5" id="Fill-2"></path>
                        <path d="M15.1020408,26.25 C6.63357143,26.25 0,23.28525 0,19.5 C0,19.086 0.337530612,18.75 0.755102041,18.75 C1.17267347,18.75 1.51020408,19.086 1.51020408,19.5 C1.51020408,22.59375 8.67310204,24.75 15.1020408,24.75 C15.5196122,24.75 15.8571429,25.086 15.8571429,25.5 C15.8571429,25.914 15.5196122,26.25 15.1020408,26.25" id="Fill-3"></path>
                        <path d="M15.1020408,33 C6.63357143,33 0,30.03525 0,26.25 L0,6.75 C0,6.336 0.337530612,6 0.755102041,6 C1.17267347,6 1.51020408,6.336 1.51020408,6.75 L1.51020408,26.25 C1.51020408,29.34375 8.67310204,31.5 15.1020408,31.5 C15.5196122,31.5 15.8571429,31.836 15.8571429,32.25 C15.8571429,32.664 15.5196122,33 15.1020408,33" id="Fill-4"></path>
                        <path d="M29.4489796,15.75 C29.0314082,15.75 28.6938776,15.414 28.6938776,15 L28.6938776,6.75 C28.6938776,6.336 29.0314082,6 29.4489796,6 C29.866551,6 30.2040816,6.336 30.2040816,6.75 L30.2040816,15 C30.2040816,15.414 29.866551,15.75 29.4489796,15.75" id="Fill-5"></path>
                        <path d="M29.4489796,36 L24.9183673,36 C24.5007959,36 24.1632653,35.664 24.1632653,35.25 L24.1632653,33.8625 C23.717,33.666 23.1997551,33.39525 22.6953469,33.03075 L21.4788776,33.7245 C21.1179388,33.93075 20.6573265,33.807 20.4489184,33.44925 L18.1836122,29.55225 C18.0831837,29.37975 18.0567551,29.17575 18.108102,28.983 C18.1602041,28.791 18.2870612,28.62675 18.4599796,28.52775 L19.6636122,27.83775 C19.6303878,27.55425 19.6145306,27.2775 19.6145306,27 C19.6145306,26.7255 19.6311429,26.44875 19.6643673,26.163 L18.4622449,25.47375 C18.2893265,25.374 18.1624694,25.2105 18.1103673,25.01775 C18.0590204,24.82575 18.0862041,24.621 18.1858776,24.4485 L20.453449,20.55225 C20.6618571,20.19375 21.1224694,20.07075 21.4841633,20.277 L22.6953469,20.97 C23.2020204,20.6055 23.7185102,20.334 24.1632653,20.139 L24.1632653,18.75 C24.1632653,18.336 24.5007959,18 24.9183673,18 L29.4489796,18 C29.866551,18 30.2040816,18.336 30.2040816,18.75 L30.2040816,20.13975 C30.7213265,20.36925 31.2098776,20.649 31.6493469,20.96775 L32.8454286,20.2785 C33.0175918,20.17875 33.2237347,20.151 33.4193061,20.20275 C33.6133673,20.25375 33.7779796,20.37975 33.8784082,20.55225 L36.1437143,24.44925 C36.3521224,24.80775 36.2282857,25.266 35.8673469,25.47375 L34.6659796,26.163 C34.6992041,26.44875 34.7158163,26.7255 34.7158163,27 C34.7158163,27.2775 34.6999592,27.55425 34.6667347,27.83775 L35.8696122,28.52775 C36.230551,28.73475 36.3536327,29.19375 36.1459796,29.55225 L33.8829388,33.4485 C33.7825102,33.621 33.6171429,33.747 33.4238367,33.79875 C33.2305306,33.84975 33.0243878,33.82275 32.8507143,33.723 L31.650102,33.03225 C31.2113878,33.351 30.7228367,33.6315 30.2040816,33.86175 L30.2040816,35.25 C30.2040816,35.664 29.866551,36 29.4489796,36 L29.4489796,36 Z M25.6734694,34.5 L28.6938776,34.5 L28.6938776,33.3585 C28.6938776,33.04575 28.8902041,32.76525 29.1846939,32.65575 C29.9027959,32.39025 30.5635102,32.01075 31.0943469,31.5585 C31.3374898,31.3515 31.6878571,31.32 31.9634694,31.479 L32.9534082,32.04825 L34.4613469,29.45175 L33.4661224,28.88175 C33.1897551,28.72275 33.0440204,28.40925 33.1014082,28.0965 C33.1716327,27.714 33.2063673,27.3555 33.2063673,27 C33.2063673,26.6505 33.1716327,26.292 33.099898,25.905 C33.0425102,25.593 33.1882449,25.27875 33.4646122,25.1205 L34.4583265,24.54975 L32.9488776,21.95325 L31.9642245,22.521 C31.687102,22.6815 31.3382449,22.65 31.0943469,22.44225 C30.5612449,21.98925 29.9012857,21.60975 29.185449,21.34575 C28.8902041,21.23625 28.6938776,20.9565 28.6938776,20.643 L28.6938776,19.5 L25.6734694,19.5 L25.6734694,20.643 C25.6734694,20.9565 25.4771429,21.23625 25.181898,21.34575 C24.4532245,21.615 23.7683469,22.00425 23.2526122,22.44225 C23.0094694,22.64775 22.6621224,22.68075 22.3842449,22.5225 L21.3837347,21.95025 L19.8712653,24.54975 L20.8657347,25.1205 C21.142102,25.27875 21.2878367,25.593 21.230449,25.905 C21.1587143,26.292 21.1239796,26.6505 21.1239796,27 C21.1239796,27.3555 21.1587143,27.714 21.2289388,28.0965 C21.2863265,28.40925 21.1405918,28.72275 20.8642245,28.88175 L19.8697551,29.45175 L21.3799592,32.05125 L22.385,31.4775 C22.6628776,31.32 23.0094694,31.3515 23.2526122,31.5585 C23.7660816,31.995 24.4509592,32.385 25.181898,32.65575 C25.4771429,32.76525 25.6734694,33.04575 25.6734694,33.3585 L25.6734694,34.5 L25.6734694,34.5 Z" id="Fill-6"></path>
                        <path d="M27.1640408,30.75 C25.0829796,30.75 23.3892857,29.06775 23.3892857,27 C23.3892857,24.93225 25.0829796,23.25 27.1640408,23.25 C29.2458571,23.25 30.9403061,24.93225 30.9403061,27 C30.9403061,29.06775 29.2458571,30.75 27.1640408,30.75 L27.1640408,30.75 Z M27.1640408,24.75 C25.915102,24.75 24.8987347,25.7595 24.8987347,27 C24.8987347,28.24125 25.915102,29.25 27.1640408,29.25 C28.4137347,29.25 29.4293469,28.24125 29.4293469,27 C29.4293469,25.7595 28.4137347,24.75 27.1640408,24.75 L27.1640408,24.75 Z" id="Fill-7"></path>
                    </g>
                </g>
            </g>
        </g>
    </g>
</svg>