<?xml version="1.0" encoding="UTF-8" standalone="no"?>
<svg width="39px" height="37px" viewBox="0 0 39 37" version="1.1" xmlns="http://www.w3.org/2000/svg" xmlns:xlink="http://www.w3.org/1999/xlink" xmlns:sketch="http://www.bohemiancoding.com/sketch/ns">
    <!-- Generator: Sketch 3.1 (8751) - http://www.bohemiancoding.com/sketch -->
    <title>Imported Layers</title>
    <desc>Created with Sketch.</desc>
    <defs></defs>
    <g id="Page-1" stroke="none" stroke-width="1" fill="none" fill-rule="evenodd" sketch:type="MSPage">
        <g id="Desktop-HD" sketch:type="MSArtboardGroup" transform="translate(-74.000000, -1280.000000)" stroke="#222222" stroke-width="1.5" stroke-linecap="round" stroke-linejoin="round">
            <g id="Features" sketch:type="MSLayerGroup" transform="translate(69.000000, 990.000000)">
                <path d="M9.16666667,325.434783 L39.25,325.434783 L39.25,308.217391 L9.16666667,308.217391 L9.16666667,325.434783 Z M12.3333333,322.304348 L12.3333333,311.347826 L21.0416667,311.347826 L21.0416667,316.043478 L27.375,316.043478 L27.375,311.347826 L36.0833333,311.347826 L36.0833333,322.304348 L12.3333333,322.304348 L12.3333333,322.304348 Z M24.2083333,311.347826 L24.2083333,312.913043 L24.2083333,311.347826 Z M37.6666667,308.217391 C37.6666667,304.744174 34.967875,304.204174 31.3333333,304.304348 C30.6160833,301.164522 27.6014167,300.391304 24.2083333,300.391304 C20.81525,300.391304 17.8005833,301.164522 17.0833333,304.304348 C13.448,304.204174 10.75,304.744957 10.75,308.217391 L37.6666667,308.217391 Z M6,305.086957 L7.58333333,305.086957 L6,305.086957 Z M12.3333333,293.347826 L13.9166667,294.913043 L12.3333333,293.347826 Z M24.2083333,291 L24.2083333,293.347826 L24.2083333,291 Z M36.0833333,293.347826 L34.5,294.913043 L36.0833333,293.347826 Z M42.4166667,305.086957 L40.8333333,305.086957 L42.4166667,305.086957 Z" id="Imported-Layers" sketch:type="MSShapeGroup"></path>
            </g>
        </g>
    </g>
</svg>