<?xml version="1.0" encoding="UTF-8" standalone="no"?>
<svg width="66px" height="72px" viewBox="0 0 66 72" version="1.1" xmlns="http://www.w3.org/2000/svg" xmlns:xlink="http://www.w3.org/1999/xlink" xmlns:sketch="http://www.bohemiancoding.com/sketch/ns">
    <!-- Generator: Sketch 3.1 (8751) - http://www.bohemiancoding.com/sketch -->
    <title>twitter</title>
    <desc>Created with Sketch.</desc>
    <defs></defs>
    <g id="Page-1" stroke="none" stroke-width="1" fill="none" fill-rule="evenodd" sketch:type="MSPage">
        <g id="Desktop-HD" sketch:type="MSArtboardGroup" transform="translate(-703.000000, -3018.000000)">
            <g id="Twitter" sketch:type="MSLayerGroup" transform="translate(684.000000, 3018.000000)">
                <g id="twitter" transform="translate(19.000000, 0.000000)" sketch:type="MSShapeGroup">
                    <path d="M27.7645175,1.65376307 C30.6517063,0.023588187 35.3385067,0.0268305325 38.2199531,1.65376307 L60.7567528,14.3785717 C63.6439416,16.0087466 65.9844706,20.0096681 65.9844706,23.336874 L65.9844706,48.5802666 C65.9844706,51.8976254 63.6381991,55.9116363 60.7567528,57.5385688 L38.2199531,70.2633775 C35.3327643,71.8935523 30.6459638,71.89031 27.7645175,70.2633775 L5.22771776,57.5385688 C2.34052897,55.9083939 0,51.9074724 0,48.5802666 L0,23.336874 C0,20.0195151 2.34627146,16.0055043 5.22771776,14.3785717 L27.7645175,1.65376307 Z" id="Stroke-2" fill="#28A9DE"></path>
                    <path d="M49.3333333,35.243375 C48.1616667,35.45625 46.4616667,35.23525 45.5583333,34.837125 C47.4283333,34.671375 48.6983333,33.7695 49.1866667,32.54425 C48.5133333,32.981375 46.4166667,33.465625 45.2616667,33.00575 C45.2016667,32.7165 45.1366667,32.4435 45.075,32.19325 C44.1966667,28.756375 41.1733333,25.98575 38.0116667,26.3205 C38.265,26.21 38.525,26.110875 38.785,26.016625 C39.1316667,25.886625 41.1766667,25.5275 40.8533333,24.765375 C40.5816667,24.092625 38.085,25.275625 37.6166667,25.43 C38.2366667,25.181375 39.2633333,24.75725 39.37,24 C38.4216667,24.138125 37.4883333,24.615875 36.7683333,25.308125 C37.0266667,25.01075 37.225,24.648375 37.2683333,24.258375 C34.73,25.97925 33.2483333,29.44375 32.05,32.809125 C31.1083333,31.840625 30.2716667,31.076875 29.525,30.65275 C27.4233333,29.46 24.915,28.213625 20.9733333,26.660125 C20.8516667,28.043 21.6166667,29.88575 23.8183333,31.10775 C23.345,31.037875 22.4716667,31.193875 21.7733333,31.369375 C22.0583333,32.955375 22.9866667,34.261875 25.505,34.894 C24.355,34.970375 23.76,35.253125 23.2233333,35.8495 C23.745,36.952875 25.0233333,38.249625 27.325,37.98475 C24.7666667,39.15475 26.2816667,41.324125 28.365,41.00075 C24.815,44.89425 19.2166667,44.605 16,41.350125 C24.3916667,53.4905 42.6383333,48.52775 45.355,36.835875 C47.395,36.852125 48.5916667,36.08675 49.3333333,35.243375" id="Imported-Layers" fill="#FFFFFF"></path>
                </g>
            </g>
        </g>
    </g>
</svg>