<?xml version="1.0" encoding="UTF-8" standalone="no"?>
<svg width="29px" height="38px" viewBox="0 0 29 38" version="1.1" xmlns="http://www.w3.org/2000/svg" xmlns:xlink="http://www.w3.org/1999/xlink" xmlns:sketch="http://www.bohemiancoding.com/sketch/ns">
    <!-- Generator: Sketch 3.1 (8751) - http://www.bohemiancoding.com/sketch -->
    <title>Imported Layers</title>
    <desc>Created with Sketch.</desc>
    <defs></defs>
    <g id="Page-1" stroke="none" stroke-width="1" fill="none" fill-rule="evenodd" sketch:type="MSPage">
        <g id="Desktop-HD" sketch:type="MSArtboardGroup" transform="translate(-918.000000, -1208.000000)" stroke="#222222" stroke-width="1.5" stroke-linecap="round" stroke-linejoin="round">
            <g id="Features" sketch:type="MSLayerGroup" transform="translate(69.000000, 990.000000)">
                <g id="Responsive" transform="translate(850.000000, 218.000000)" sketch:type="MSShapeGroup">
                    <g id="Imported-Layers" transform="translate(0.000000, 1.000000)">
                        <path d="M27,32.8695652 C27,34.5975652 25.5785294,36 23.8235294,36 L3.17647059,36 C1.42305882,36 0,34.5975652 0,32.8695652 L0,3.13043478 C0,1.40086957 1.42305882,0 3.17647059,0 L23.8235294,0 C25.5785294,0 27,1.40086957 27,3.13043478 L27,32.8695652 L27,32.8695652 Z" id="Stroke-1"></path>
                        <path d="M13.5,31.3043478 C12.6217059,31.3043478 11.9117647,32.0047826 11.9117647,32.8695652 C11.9117647,33.7335652 12.6217059,34.4347826 13.5,34.4347826 C14.3759118,34.4347826 15.0882353,33.7335652 15.0882353,32.8695652 C15.0882353,32.0047826 14.3759118,31.3043478 13.5,31.3043478" id="Fill-2"></path>
                        <path d="M3.17647059,4.69565217 L23.8235294,4.69565217 L23.8235294,29.7391304 L3.17647059,29.7391304 L3.17647059,4.69565217 Z" id="Stroke-3"></path>
                        <path d="M13.5,1.56521739 C13.0608529,1.56521739 12.7058824,1.91504348 12.7058824,2.34782609 C12.7058824,2.77982609 13.0608529,3.13043478 13.5,3.13043478 C13.9391471,3.13043478 14.2941176,2.77982609 14.2941176,2.34782609 C14.2941176,1.91504348 13.9391471,1.56521739 13.5,1.56521739" id="Fill-4"></path>
                    </g>
                </g>
            </g>
        </g>
    </g>
</svg>