<?xml version="1.0" encoding="UTF-8" standalone="no"?>
<svg width="48px" height="46px" viewBox="0 0 48 46" version="1.1" xmlns="http://www.w3.org/2000/svg" xmlns:xlink="http://www.w3.org/1999/xlink" xmlns:sketch="http://www.bohemiancoding.com/sketch/ns">
    <!-- Generator: Sketch 3.1 (8751) - http://www.bohemiancoding.com/sketch -->
    <title>Imported Layers</title>
    <desc>Created with Sketch.</desc>
    <defs></defs>
    <g id="Page-1" stroke="none" stroke-width="1" fill="none" fill-rule="evenodd" sketch:type="MSPage">
        <g id="Desktop-HD" sketch:type="MSArtboardGroup" transform="translate(-1040.000000, -2640.000000)" fill="#AAAAAA">
            <path d="M1082,2652.00025 L1073.054,2652.00025 C1073.054,2651.85025 1073.03,2651.69825 1072.959,2651.55525 C1072.18,2649.98725 1071.026,2648.70825 1069.651,2647.76325 L1075.707,2641.70725 C1076.098,2641.31625 1076.098,2640.68425 1075.707,2640.29325 C1075.316,2639.90225 1074.684,2639.90225 1074.293,2640.29325 L1067.82,2646.76525 C1066.632,2646.27625 1065.343,2646.00025 1064,2646.00025 C1062.657,2646.00025 1061.367,2646.27625 1060.178,2646.76525 L1053.707,2640.29325 C1053.316,2639.90225 1052.684,2639.90225 1052.293,2640.29325 C1051.902,2640.68425 1051.902,2641.31625 1052.293,2641.70725 L1058.348,2647.76325 C1056.972,2648.70725 1055.818,2649.98625 1055.039,2651.55425 C1054.968,2651.69825 1054.944,2651.84925 1054.945,2652.00025 L1046,2652.00025 C1042.691,2652.00025 1040,2654.69125 1040,2658.00025 L1040,2680.00025 C1040,2683.30925 1042.691,2686.00025 1046,2686.00025 L1082,2686.00025 C1085.309,2686.00025 1088,2683.30925 1088,2680.00025 L1088,2658.00025 C1088,2654.69125 1085.309,2652.00025 1082,2652.00025 L1082,2652.00025 Z M1057.091,2651.99925 L1070.907,2652.00025 L1057.091,2652.00025 L1057.091,2651.99925 L1057.091,2651.99925 Z M1074,2677.00025 C1074,2682.00025 1064.968,2682.00025 1062,2682.00025 L1056,2682.00025 C1053.032,2682.00025 1044,2682.00025 1044,2677.00025 L1044,2661.00025 C1044,2656.00025 1053.032,2656.00025 1056,2656.00025 L1062,2656.00025 C1064.968,2656.00025 1074,2656.00025 1074,2661.00025 L1074,2677.00025 L1074,2677.00025 Z M1080,2676.00025 C1077.794,2676.00025 1076,2674.20625 1076,2672.00025 C1076,2669.79425 1077.794,2668.00025 1080,2668.00025 C1082.206,2668.00025 1084,2669.79425 1084,2672.00025 C1084,2674.20625 1082.206,2676.00025 1080,2676.00025 L1080,2676.00025 Z M1080,2666.00025 C1077.794,2666.00025 1076,2664.20625 1076,2662.00025 C1076,2659.79425 1077.794,2658.00025 1080,2658.00025 C1082.206,2658.00025 1084,2659.79425 1084,2662.00025 C1084,2664.20625 1082.206,2666.00025 1080,2666.00025 L1080,2666.00025 Z" id="Imported-Layers" sketch:type="MSShapeGroup"></path>
        </g>
    </g>
</svg>